<svg class="svg-icon" style="width: 1em; height: 1em;vertical-align: middle;fill: currentColor;overflow: hidden;" viewBox="0 0 1024 1024" version="1.1" xmlns="http://www.w3.org/2000/svg"><path d="M21.711157 835.725012c231.172505 231.172505 573.153091 264.164644 820.935432 16.382303s214.790202-589.762927-16.382303-820.935432z" fill="#4B824B" /><path d="M35.363077 821.84556c218.885778 218.885778 560.4113 232.537697 784.985377 7.96362S1031.498144 263.70958 812.612366 45.506399z" fill="#ADFFA9" /><path d="M47.649804 809.786364A532.424864 532.424864 0 0 0 800.325638 56.882998z" fill="#FF5555" /><path d="M121.37017 667.8064L12.609877 781.117333a11.3766 11.3766 0 0 0 8.191152 19.34022 11.149068 11.149068 0 0 0 7.508556-4.095576l109.442889-113.765997a11.3766 11.3766 0 0 0-16.382304-15.699707zM184.396532 630.03609a11.3766 11.3766 0 0 0 8.191152-3.41298l32.082011-33.219671a11.3766 11.3766 0 0 0-16.382303-15.699708l-32.082011 32.992139a11.3766 11.3766 0 0 0 8.191151 19.34022zM767.105967 14.562048a10.466472 10.466472 0 0 0-7.963619-3.185448 11.3766 11.3766 0 0 0-7.96362 3.41298l-500.570386 519.683072a11.3766 11.3766 0 1 0 16.382304 15.699708L759.597412 38.907971a521.503329 521.503329 0 0 1-591.583183 838.682927 11.3766 11.3766 0 1 0-9.556344 20.705412 538.79576 538.79576 0 0 0 227.531993 50.057038A544.48406 544.48406 0 0 0 767.105967 14.562048z" fill="#604D42" /><path d="M784.170867 251.650385c8.873748-8.873748 7.508556-24.573455-6.370896-38.452907a61.888702 61.888702 0 0 0-45.506399-14.334516 61.888702 61.888702 0 0 0 14.334516 45.506399c12.741792 14.562048 28.669031 16.154772 37.542779 7.281024zM626.946259 303.982743a61.888702 61.888702 0 0 0 14.334516 45.506399c13.879452 13.879452 29.579159 15.244644 38.452907 6.370896s6.598428-23.890859-7.281024-37.315247a61.888702 61.888702 0 0 0-45.506399-14.562048zM467.673864 568.829983c8.873748-8.873748 7.508556-24.573455-6.370896-38.452906a61.888702 61.888702 0 0 0-45.506398-14.334516 61.888702 61.888702 0 0 0 14.334515 45.506399c12.059196 14.78958 27.758903 16.154772 37.542779 7.281023zM361.643955 673.949764c8.873748-8.873748 7.508556-24.573455-6.370896-38.452907a61.888702 61.888702 0 0 0-45.506398-14.334515 61.888702 61.888702 0 0 0 14.334515 45.506399c12.969324 14.562048 29.806691 15.92724 37.542779 7.281023zM439.687429 651.651629a61.888702 61.888702 0 0 0 14.334515 45.506399c13.879452 13.879452 29.579159 15.244644 38.452907 6.370895s7.508556-24.573455-6.370895-38.452906a61.888702 61.888702 0 0 0-46.416527-13.424388zM808.971854 343.800842a61.888702 61.888702 0 0 0-45.506399-14.334516 61.888702 61.888702 0 0 0 14.334516 45.506399c13.879452 13.879452 29.579159 15.244644 38.452907 6.370896s5.6883-23.663327-7.281024-37.542779zM331.154668 760.639454a61.888702 61.888702 0 0 0 14.334516 45.506398c13.879452 13.879452 29.579159 15.244644 38.452906 6.370896s7.508556-24.573455-6.370895-38.452907a61.888702 61.888702 0 0 0-46.416527-13.424387zM189.402236 740.616638a61.888702 61.888702 0 0 0 14.334516 45.506399c13.879452 13.879452 29.579159 15.244644 38.452907 6.370896s7.508556-24.573455-6.370896-38.452907a61.888702 61.888702 0 0 0-46.416527-13.424388z" fill="#604D42" /></svg>